<?xml version="1.0" encoding="UTF-8"?>
<svg width="400" height="200" viewBox="0 0 400 200" fill="none" xmlns="http://www.w3.org/2000/svg">
  <!-- Background -->
  <rect width="400" height="200" rx="8" fill="#111722" />
  
  <!-- Header -->
  <rect x="15" y="15" width="370" height="30" rx="6" fill="#1A2234" />
  <text x="30" y="35" font-family="sans-serif" font-size="14" fill="#E2E8F0">Activity Monitor</text>
  <circle cx="360" cy="30" r="10" fill="#00E7FF" fill-opacity="0.2" />
  <path d="M365 30L355 30M360 25V35" stroke="#00E7FF" stroke-width="1.5" stroke-linecap="round" />
  
  <!-- Activity List -->
  <!-- Item 1 -->
  <rect x="15" y="55" width="370" height="25" rx="4" fill="#1A2234" />
  <circle cx="30" cy="67" r="8" fill="#00E7FF" fill-opacity="0.2" />
  <text x="50" y="72" font-family="sans-serif" font-size="11" fill="white">Tweet received 42 likes</text>
  <text x="340" y="72" font-family="sans-serif" font-size="10" fill="#A0AEC0">2m</text>
  
  <!-- Item 2 -->
  <rect x="15" y="85" width="370" height="25" rx="4" fill="#1A2234" />
  <circle cx="30" cy="97" r="8" fill="#FF5E5B" fill-opacity="0.2" />
  <path d="M30 93L30 101M26 97H34" stroke="#FF5E5B" stroke-width="1.5" stroke-linecap="round" />
  <text x="50" y="102" font-family="sans-serif" font-size="11" fill="white">@user123 mentioned you</text>
  <text x="340" y="102" font-family="sans-serif" font-size="10" fill="#A0AEC0">5m</text>
  
  <!-- Item 3 -->
  <rect x="15" y="115" width="370" height="25" rx="4" fill="#1A2234" />
  <circle cx="30" cy="127" r="8" fill="#4C9AFF" fill-opacity="0.2" />
  <path d="M26 127H34M30 123V131" stroke="#4C9AFF" stroke-width="1.5" stroke-linecap="round" />
  <text x="50" y="132" font-family="sans-serif" font-size="11" fill="white">Tweet scheduled for tomorrow</text>
  <text x="340" y="132" font-family="sans-serif" font-size="10" fill="#A0AEC0">10m</text>
  
  <!-- Item 4 -->
  <rect x="15" y="145" width="370" height="25" rx="4" fill="#1A2234" />
  <circle cx="30" cy="157" r="8" fill="#00E7FF" fill-opacity="0.2" />
  <text x="50" y="162" font-family="sans-serif" font-size="11" fill="white">Thread received 15 retweets</text>
  <text x="340" y="162" font-family="sans-serif" font-size="10" fill="#A0AEC0">25m</text>
  
  <!-- Bottom Progress -->
  <rect x="15" y="180" width="370" height="10" rx="5" fill="#1A2234" />
  <rect x="15" y="180" width="220" height="10" rx="5" fill="#00E7FF" fill-opacity="0.3" />
  <rect x="15" y="180" width="120" height="10" rx="5" fill="#00E7FF" />
</svg> 