<?xml version="1.0" encoding="UTF-8"?>
<svg width="700" height="380" viewBox="0 0 700 380" fill="none" xmlns="http://www.w3.org/2000/svg">
  <!-- Background -->
  <rect width="700" height="380" rx="24" fill="#101522" />
  <!-- Chat window -->
  <rect x="40" y="40" width="620" height="300" rx="18" fill="#181E2A" />
  <!-- Chat header -->
  <rect x="40" y="40" width="620" height="48" rx="12" fill="#181E2A" />
  <rect x="60" y="56" width="120" height="16" rx="8" fill="#232B3A" />
  <rect x="570" y="52" width="60" height="24" rx="8" fill="#00E7FF" fill-opacity="0.15" />
  <!-- Chat bubbles -->
  <!-- User: Growth Plan -->
  <rect x="80" y="110" width="260" height="44" rx="14" fill="#232B3A" />
  <text x="100" y="135" font-family="sans-serif" font-size="15" fill="#00E7FF">Can you create a growth plan?</text>
  <!-- AI: Growth Plan -->
  <rect x="360" y="160" width="240" height="54" rx="14" fill="#00E7FF" fill-opacity="0.13" />
  <text x="380" y="185" font-family="sans-serif" font-size="15" fill="#00E7FF">Absolutely! Here's a tailored plan for your account 🚀</text>
  <!-- User: CSV Analysis -->
  <rect x="80" y="230" width="220" height="44" rx="14" fill="#232B3A" />
  <text x="100" y="255" font-family="sans-serif" font-size="15" fill="#00E7FF">Analyze my Twitter CSV</text>
  <!-- AI: CSV Analysis -->
  <rect x="320" y="270" width="280" height="44" rx="14" fill="#00E7FF" fill-opacity="0.13" />
  <text x="340" y="295" font-family="sans-serif" font-size="15" fill="#00E7FF">CSV processed! Here are your key insights 📊</text>
  <!-- User: Strategy Conversation -->
  <rect x="80" y="180" width="200" height="38" rx="14" fill="#232B3A" />
  <text x="100" y="205" font-family="sans-serif" font-size="15" fill="#00E7FF">What's the best strategy?</text>
  <!-- AI: Strategy Conversation -->
  <rect x="300" y="210" width="300" height="44" rx="14" fill="#00E7FF" fill-opacity="0.13" />
  <text x="320" y="235" font-family="sans-serif" font-size="15" fill="#00E7FF">Let's discuss your goals and audience for a custom strategy.</text>
  <!-- AI: Task Manager -->
  <rect x="120" y="320" width="420" height="38" rx="14" fill="#00E7FF" fill-opacity="0.13" />
  <text x="140" y="345" font-family="sans-serif" font-size="15" fill="#00E7FF">Automatic task manager enabled: your growth tasks are ready ✅</text>
</svg> 