<?xml version="1.0" encoding="UTF-8"?>
<svg width="800" height="420" viewBox="0 0 800 420" fill="none" xmlns="http://www.w3.org/2000/svg">
  <!-- Background -->
  <rect width="800" height="420" rx="24" fill="#101522" />
  <!-- Sidebar -->
  <rect x="0" y="0" width="90" height="420" rx="18" fill="#181E2A" />
  <rect x="25" y="32" width="40" height="40" rx="12" fill="#00E7FF" fill-opacity="0.15" />
  <rect x="20" y="90" width="50" height="10" rx="5" fill="#2A3344" />
  <rect x="20" y="110" width="50" height="10" rx="5" fill="#2A3344" />
  <rect x="20" y="130" width="50" height="10" rx="5" fill="#2A3344" />
  <!-- Header -->
  <rect x="90" y="0" width="710" height="48" rx="12" fill="#181E2A" />
  <rect x="110" y="14" width="120" height="20" rx="8" fill="#232B3A" />
  <rect x="250" y="14" width="80" height="20" rx="8" fill="#232B3A" />
  <rect x="670" y="12" width="32" height="24" rx="8" fill="#00E7FF" fill-opacity="0.15" />
  <!-- Stat Cards -->
  <rect x="120" y="70" width="140" height="70" rx="14" fill="#181E2A" />
  <rect x="280" y="70" width="140" height="70" rx="14" fill="#181E2A" />
  <rect x="440" y="70" width="140" height="70" rx="14" fill="#181E2A" />
  <text x="140" y="98" font-family="sans-serif" font-size="13" fill="#A0AEC0">Followers</text>
  <text x="140" y="122" font-family="sans-serif" font-size="22" font-weight="bold" fill="#00E7FF">12,430</text>
  <text x="300" y="98" font-family="sans-serif" font-size="13" fill="#A0AEC0">Impressions</text>
  <text x="300" y="122" font-family="sans-serif" font-size="22" font-weight="bold" fill="#00E7FF">543K</text>
  <text x="460" y="98" font-family="sans-serif" font-size="13" fill="#A0AEC0">Engagement</text>
  <text x="460" y="122" font-family="sans-serif" font-size="22" font-weight="bold" fill="#00E7FF">3.2%</text>
  <!-- Bar Chart -->
  <rect x="120" y="160" width="460" height="120" rx="16" fill="#181E2A" />
  <text x="140" y="185" font-family="sans-serif" font-size="13" fill="#A0AEC0">Tweet Performance</text>
  <g>
    <rect x="160" y="240" width="18" height="30" rx="4" fill="#00E7FF" />
    <rect x="185" y="220" width="18" height="50" rx="4" fill="#00E7FF" />
    <rect x="210" y="210" width="18" height="60" rx="4" fill="#00E7FF" />
    <rect x="235" y="230" width="18" height="40" rx="4" fill="#00E7FF" />
    <rect x="260" y="200" width="18" height="70" rx="4" fill="#00E7FF" />
    <rect x="285" y="215" width="18" height="55" rx="4" fill="#00E7FF" />
    <rect x="310" y="225" width="18" height="45" rx="4" fill="#00E7FF" />
    <rect x="335" y="210" width="18" height="60" rx="4" fill="#00E7FF" />
    <rect x="360" y="235" width="18" height="35" rx="4" fill="#00E7FF" />
    <rect x="385" y="220" width="18" height="50" rx="4" fill="#00E7FF" />
  </g>
  <!-- Recommendations -->
  <rect x="600" y="70" width="180" height="210" rx="18" fill="#181E2A" />
  <text x="620" y="100" font-family="sans-serif" font-size="14" fill="#A0AEC0">Growth Tips</text>
  <rect x="620" y="120" width="140" height="32" rx="8" fill="#232B3A" />
  <text x="630" y="142" font-family="sans-serif" font-size="12" fill="#00E7FF">Post at 8-11AM</text>
  <rect x="620" y="165" width="140" height="32" rx="8" fill="#232B3A" />
  <text x="630" y="187" font-family="sans-serif" font-size="12" fill="#00E7FF">Use more threads</text>
  <rect x="620" y="210" width="140" height="32" rx="8" fill="#232B3A" />
  <text x="630" y="232" font-family="sans-serif" font-size="12" fill="#00E7FF">Engage with others</text>
</svg> 