<svg xmlns="http://www.w3.org/2000/svg" viewBox="0 0 1024 1024">
  <rect width="1024" height="1024" rx="240" fill="url(#gradient)" />
  <path d="M828.42 298.61c-33.15-11.42-69.46 6.83-80.88 40.69-1.55 4.52-3.1 9.03-4.63 13.54 6.58-5.31 14.39-9.08 22.93-10.99 28.68-6.31 57.72 11.49 64.05 40.21 6.32 28.71-11.44 57.79-40.12 64.1-28.68 6.31-57.72-11.49-64.05-40.21-.71-3.24-1.15-6.5-1.34-9.75-106.07 285.7-385.49 429.54-667.1 322.74 280.21 126.37 609.12-1.84 734.19-289.29 3.61-8.29 6.96-16.53 10.06-24.7 12.52-32.76 48.26-49.78 80.88-38.38 32.61 11.4 48.88 47.68 36.35 80.44-115.2 301.46-444.98 452.66-736.98 336.95-77.83-30.81-147.87-77.77-205.49-137.37 274.71 110.45 586.9-24.25 696.74-300.72-19.39 20.34-51.13 21.43-71.87 1.61-20.92-20.01-21.93-53.04-2.25-74.29.06-.06.11-.13.17-.19 38.64-39.31 102.62-31.39 133.38 15.3 23.16-60.31 40.94-123.66 21.06-171.26-5.5-13.16-11.72-19.57-21.65-23.1-11.39-4.05-24.09-2.4-36.81 3.06-39.17 16.8-65.55 71.65-67.59 121.87l2.8-7.33c11.41-33.86 48.41-52.12 81.57-40.7 15.37 5.29 27.89 16.67 35.17 31.44 7.28 14.77 8.66 31.58 3.37 47.44z" fill="#f5f5f5" />
  <defs>
    <linearGradient id="gradient" x1="0" y1="0" x2="1024" y2="1024" gradientUnits="userSpaceOnUse">
      <stop offset="0" stop-color="#00E7FF" />
      <stop offset="1" stop-color="#7176FF" />
    </linearGradient>
  </defs>
</svg>